M48
; DRILL file {KiCad (5.1.5)-3} date 28.04.2020 0:19:41
; FORMAT={-:-/ absolute / metric / decimal}
; #@! TF.CreationDate,2020-04-28T00:19:41+02:00
; #@! TF.GenerationSoftware,Kicad,Pcbnew,(5.1.5)-3
; #@! TF.FileFunction,Plated,1,2,PTH
FMAT,2
METRIC
T1C0.400
T2C0.500
T3C0.550
T4C0.800
T5C1.000
%
G90
G05
T1
X93.576Y-91.133
X104.234Y-86.771
X109.187Y-71.905
X109.327Y-87.274
X109.38Y-83.195
X111.478Y-78.519
X112.245Y-99.012
X112.824Y-79.888
X113.591Y-68.374
X114.549Y-81.613
X114.805Y-74.569
X114.999Y-67.277
X116.274Y-74.564
X117.34Y-65.265
X118.186Y-88.923
X118.194Y-93.914
X118.267Y-79.395
X118.774Y-81.613
X119.807Y-85.769
X120.2Y-77.831
X120.968Y-85.769
X121.89Y-84.877
X122.084Y-79.289
X124.363Y-75.66
X124.628Y-96.426
X126.954Y-80.246
X126.985Y-81.295
X131.15Y-96.904
X131.953Y-66.142
X132.352Y-67.269
X132.527Y-90.018
X134.229Y-90.531
X135.913Y-101.394
T2
X97.206Y-80.366
X97.206Y-82.906
T4
X92.586Y-64.953
X92.586Y-67.493
X92.586Y-70.033
X102.199Y-79.421
X102.199Y-84.321
T5
X122.192Y-97.066
X112.166Y-97.069
X139.83Y-96.192
X139.83Y-98.732
X139.83Y-101.272
X120.881Y-60.371
X123.421Y-60.371
X125.961Y-60.371
X128.501Y-60.371
X138.473Y-65.164
X138.473Y-67.704
X138.473Y-70.244
X141.013Y-65.164
X141.013Y-67.704
X141.013Y-70.244
X134.696Y-83.703
X134.696Y-86.243
X134.696Y-88.783
X137.236Y-83.703
X137.236Y-86.243
X137.236Y-88.783
X139.776Y-83.703
X139.776Y-86.243
X139.776Y-88.783
X109.819Y-101.041
X112.359Y-101.041
X114.899Y-101.041
X117.439Y-101.041
X119.979Y-101.041
X122.519Y-101.041
X98.651Y-66.317
X98.651Y-68.857
X101.191Y-66.317
X101.191Y-68.857
X130.8Y-92.5
X133.34Y-92.5
X135.88Y-92.5
X138.42Y-92.5
X140.96Y-92.5
X91.707Y-75.067
X91.707Y-77.607
X91.707Y-80.147
X116.04Y-60.373
T2
G00X140.27Y-73.653
M15
G01X139.62Y-73.653
M16
G05
G00X140.27Y-80.653
M15
G01X139.62Y-80.653
M16
G05
T3
G00X137.245Y-74.802
M15
G01X137.245Y-74.502
M16
G05
G00X137.245Y-79.802
M15
G01X137.245Y-79.502
M16
G05
T0
M30
