G04 #@! TF.GenerationSoftware,KiCad,Pcbnew,(5.1.5)-3*
G04 #@! TF.CreationDate,2020-04-28T00:17:26+02:00*
G04 #@! TF.ProjectId,main_pcb,6d61696e-5f70-4636-922e-6b696361645f,1*
G04 #@! TF.SameCoordinates,Original*
G04 #@! TF.FileFunction,Legend,Top*
G04 #@! TF.FilePolarity,Positive*
%FSLAX46Y46*%
G04 Gerber Fmt 4.6, Leading zero omitted, Abs format (unit mm)*
G04 Created by KiCad (PCBNEW (5.1.5)-3) date 2020-04-28 00:17:26*
%MOMM*%
%LPD*%
G04 APERTURE LIST*
%ADD10C,0.120000*%
%ADD11C,0.150000*%
G04 APERTURE END LIST*
D10*
X142290000Y-93830000D02*
X142290000Y-91170000D01*
X132070000Y-93830000D02*
X142290000Y-93830000D01*
X132070000Y-91170000D02*
X142290000Y-91170000D01*
X132070000Y-93830000D02*
X132070000Y-91170000D01*
X130800000Y-93830000D02*
X129470000Y-93830000D01*
X129470000Y-93830000D02*
X129470000Y-92500000D01*
X92508440Y-90383300D02*
X92508440Y-89383300D01*
X90808440Y-89383300D02*
X90808440Y-90383300D01*
X124323220Y-88794960D02*
X125323220Y-88794960D01*
X125323220Y-87094960D02*
X124323220Y-87094960D01*
X124293060Y-86326080D02*
X125293060Y-86326080D01*
X125293060Y-84626080D02*
X124293060Y-84626080D01*
X118745380Y-75828260D02*
X119745380Y-75828260D01*
X119745380Y-74128260D02*
X118745380Y-74128260D01*
X115794420Y-69580820D02*
X115794420Y-70580820D01*
X117494420Y-70580820D02*
X117494420Y-69580820D01*
X109799820Y-94195540D02*
X108299820Y-94195540D01*
X109799820Y-94195540D02*
X109799820Y-97395540D01*
X108299820Y-97395540D02*
X108299820Y-94195540D01*
X122808300Y-94037500D02*
X124308300Y-94037500D01*
X122808300Y-94037500D02*
X122808300Y-90837500D01*
X124308300Y-90837500D02*
X124308300Y-94037500D01*
X108746800Y-77574840D02*
X105546800Y-77574840D01*
X105546800Y-76074840D02*
X108746800Y-76074840D01*
X105546800Y-76074840D02*
X105546800Y-77574840D01*
X119551140Y-59040720D02*
X119551140Y-61700720D01*
X127231140Y-59040720D02*
X119551140Y-59040720D01*
X127231140Y-61700720D02*
X119551140Y-61700720D01*
X127231140Y-59040720D02*
X127231140Y-61700720D01*
X128501140Y-59040720D02*
X129831140Y-59040720D01*
X129831140Y-59040720D02*
X129831140Y-60370720D01*
X137143180Y-63833700D02*
X138473180Y-63833700D01*
X137143180Y-65163700D02*
X137143180Y-63833700D01*
X139743180Y-63833700D02*
X142343180Y-63833700D01*
X139743180Y-66433700D02*
X139743180Y-63833700D01*
X137143180Y-66433700D02*
X139743180Y-66433700D01*
X142343180Y-63833700D02*
X142343180Y-71573700D01*
X137143180Y-66433700D02*
X137143180Y-71573700D01*
X137143180Y-71573700D02*
X142343180Y-71573700D01*
X120861780Y-95736100D02*
X122191780Y-95736100D01*
X120861780Y-97066100D02*
X120861780Y-95736100D01*
X120861780Y-98336100D02*
X123521780Y-98336100D01*
X123521780Y-98336100D02*
X123521780Y-98396100D01*
X120861780Y-98336100D02*
X120861780Y-98396100D01*
X120861780Y-98396100D02*
X123521780Y-98396100D01*
X123849440Y-102371200D02*
X123849440Y-99711200D01*
X111089440Y-102371200D02*
X123849440Y-102371200D01*
X111089440Y-99711200D02*
X123849440Y-99711200D01*
X111089440Y-102371200D02*
X111089440Y-99711200D01*
X109819440Y-102371200D02*
X108489440Y-102371200D01*
X108489440Y-102371200D02*
X108489440Y-101041200D01*
X110836400Y-98398640D02*
X113496400Y-98398640D01*
X110836400Y-98338640D02*
X110836400Y-98398640D01*
X113496400Y-98338640D02*
X113496400Y-98398640D01*
X110836400Y-98338640D02*
X113496400Y-98338640D01*
X110836400Y-97068640D02*
X110836400Y-95738640D01*
X110836400Y-95738640D02*
X112166400Y-95738640D01*
X102521060Y-70186860D02*
X102521060Y-64986860D01*
X99921060Y-70186860D02*
X102521060Y-70186860D01*
X97321060Y-64986860D02*
X102521060Y-64986860D01*
X99921060Y-70186860D02*
X99921060Y-67586860D01*
X99921060Y-67586860D02*
X97321060Y-67586860D01*
X97321060Y-67586860D02*
X97321060Y-64986860D01*
X98651060Y-70186860D02*
X97321060Y-70186860D01*
X97321060Y-70186860D02*
X97321060Y-68856860D01*
X90376700Y-81477160D02*
X93036700Y-81477160D01*
X90376700Y-76337160D02*
X90376700Y-81477160D01*
X93036700Y-76337160D02*
X93036700Y-81477160D01*
X90376700Y-76337160D02*
X93036700Y-76337160D01*
X90376700Y-75067160D02*
X90376700Y-73737160D01*
X90376700Y-73737160D02*
X91706700Y-73737160D01*
X142625100Y-81502500D02*
X142625100Y-72802500D01*
X136215100Y-81502500D02*
X136215100Y-72802500D01*
X136215100Y-72802500D02*
X142625100Y-72802500D01*
X141395100Y-72802500D02*
X141395100Y-81502500D01*
X142625100Y-81502500D02*
X136215100Y-81502500D01*
X131047600Y-101083660D02*
X131047600Y-99883660D01*
X132807600Y-99883660D02*
X132807600Y-101083660D01*
X135101220Y-99926840D02*
X135101220Y-101126840D01*
X133341220Y-101126840D02*
X133341220Y-99926840D01*
X107290300Y-84461460D02*
X108490300Y-84461460D01*
X108490300Y-86221460D02*
X107290300Y-86221460D01*
X111378300Y-89386300D02*
X110178300Y-89386300D01*
X110178300Y-87626300D02*
X111378300Y-87626300D01*
X92502880Y-83833420D02*
X92502880Y-85033420D01*
X90742880Y-85033420D02*
X90742880Y-83833420D01*
X107168400Y-77926040D02*
X108368400Y-77926040D01*
X108368400Y-79686040D02*
X107168400Y-79686040D01*
X107317660Y-65748460D02*
X107317660Y-64548460D01*
X109077660Y-64548460D02*
X109077660Y-65748460D01*
X114078320Y-66053860D02*
X112878320Y-66053860D01*
X112878320Y-64293860D02*
X114078320Y-64293860D01*
X124221960Y-82665680D02*
X125421960Y-82665680D01*
X125421960Y-84425680D02*
X124221960Y-84425680D01*
X92581244Y-64038189D02*
G75*
G02X94890540Y-63997880I1154296J40309D01*
G01*
X94889592Y-63977759D02*
G75*
G02X93495540Y-65126880I-1154052J-20121D01*
G01*
X90115540Y-72317880D02*
X90115540Y-62667880D01*
X95066540Y-72317880D02*
X95066540Y-62667880D01*
X90115540Y-72317880D02*
X95066540Y-72317880D01*
X90115540Y-62667880D02*
X95066540Y-62667880D01*
X93001540Y-63121880D02*
X94611540Y-64732880D01*
X92860540Y-63261880D02*
X94470540Y-64873880D01*
X130968040Y-80133080D02*
X129768040Y-80133080D01*
X129768040Y-78373080D02*
X130968040Y-78373080D01*
X130951540Y-78070600D02*
X129751540Y-78070600D01*
X129751540Y-76310600D02*
X130951540Y-76310600D01*
X126061860Y-96023500D02*
X126711860Y-96023500D01*
X129761860Y-96023500D02*
X129111860Y-96023500D01*
X129111860Y-102223500D02*
X129761860Y-102223500D01*
X126061860Y-102223500D02*
X126711860Y-102223500D01*
X126061860Y-96023500D02*
X126061860Y-102223500D01*
X129761860Y-102223500D02*
X129761860Y-96023500D01*
X94466800Y-86160680D02*
X94466800Y-92360680D01*
X98166800Y-92360680D02*
X98166800Y-86160680D01*
X98166800Y-86160680D02*
X97516800Y-86160680D01*
X95116800Y-86160680D02*
X94466800Y-86160680D01*
X94466800Y-92360680D02*
X95116800Y-92360680D01*
X98166800Y-92360680D02*
X97516800Y-92360680D01*
D11*
X112173600Y-78518600D02*
X112173600Y-78968600D01*
X119423600Y-78518600D02*
X119423600Y-79043600D01*
X119423600Y-85768600D02*
X119423600Y-85243600D01*
X112173600Y-85768600D02*
X112173600Y-85243600D01*
X112173600Y-78518600D02*
X112698600Y-78518600D01*
X112173600Y-85768600D02*
X112698600Y-85768600D01*
X119423600Y-85768600D02*
X118898600Y-85768600D01*
X119423600Y-78518600D02*
X118898600Y-78518600D01*
X112173600Y-78968600D02*
X110798600Y-78968600D01*
X107650840Y-73941760D02*
X107700840Y-73941760D01*
X107650840Y-69791760D02*
X107795840Y-69791760D01*
X112800840Y-69791760D02*
X112655840Y-69791760D01*
X112800840Y-73941760D02*
X112655840Y-73941760D01*
X107650840Y-73941760D02*
X107650840Y-69791760D01*
X112800840Y-73941760D02*
X112800840Y-69791760D01*
X107700840Y-73941760D02*
X107700840Y-75341760D01*
D10*
X125973480Y-80666160D02*
X125973480Y-78866160D01*
X122753480Y-78866160D02*
X122753480Y-81816160D01*
X124452300Y-73049180D02*
X124452300Y-71789180D01*
X124452300Y-66229180D02*
X124452300Y-67489180D01*
X120692300Y-73049180D02*
X124452300Y-73049180D01*
X118442300Y-66229180D02*
X124452300Y-66229180D01*
X104724440Y-78745720D02*
X104724440Y-84995720D01*
X99674440Y-78745720D02*
X99674440Y-84995720D01*
X99674440Y-78745720D02*
G75*
G02X104724440Y-78745720I2525000J0D01*
G01*
X99674440Y-84995720D02*
G75*
G03X104724440Y-84995720I2525000J0D01*
G01*
X98335279Y-82906142D02*
G75*
G03X98335888Y-80365600I-1129479J1270542D01*
G01*
X96076321Y-82906142D02*
G75*
G02X96075712Y-80365600I1129479J1270542D01*
G01*
X117135800Y-89617000D02*
X117135800Y-90817000D01*
X115375800Y-90817000D02*
X115375800Y-89617000D01*
X141159540Y-102602340D02*
X139829540Y-102602340D01*
X141159540Y-101272340D02*
X141159540Y-102602340D01*
X141159540Y-100002340D02*
X138499540Y-100002340D01*
X138499540Y-100002340D02*
X138499540Y-94862340D01*
X141159540Y-100002340D02*
X141159540Y-94862340D01*
X141159540Y-94862340D02*
X138499540Y-94862340D01*
X114709900Y-59043260D02*
X116039900Y-59043260D01*
X114709900Y-60373260D02*
X114709900Y-59043260D01*
X114709900Y-61643260D02*
X117369900Y-61643260D01*
X117369900Y-61643260D02*
X117369900Y-61703260D01*
X114709900Y-61643260D02*
X114709900Y-61703260D01*
X114709900Y-61703260D02*
X117369900Y-61703260D01*
X133366200Y-90113160D02*
X141097000Y-90113160D01*
X133366200Y-84973160D02*
X133366200Y-90113160D01*
X141097000Y-82382360D02*
X141097000Y-90122360D01*
X133366200Y-84973160D02*
X135966200Y-84973160D01*
X135966200Y-84973160D02*
X135966200Y-82373160D01*
X135966200Y-82373160D02*
X141097000Y-82382360D01*
X133366200Y-83703160D02*
X133366200Y-82373160D01*
X133366200Y-82373160D02*
X134696200Y-82373160D01*
D11*
X127922380Y-92833333D02*
X128636666Y-92833333D01*
X128779523Y-92880952D01*
X128874761Y-92976190D01*
X128922380Y-93119047D01*
X128922380Y-93214285D01*
X128922380Y-91833333D02*
X128922380Y-92404761D01*
X128922380Y-92119047D02*
X127922380Y-92119047D01*
X128065238Y-92214285D01*
X128160476Y-92309523D01*
X128208095Y-92404761D01*
X93765582Y-90049966D02*
X93813201Y-90097585D01*
X93860820Y-90240442D01*
X93860820Y-90335680D01*
X93813201Y-90478538D01*
X93717963Y-90573776D01*
X93622725Y-90621395D01*
X93432249Y-90669014D01*
X93289392Y-90669014D01*
X93098916Y-90621395D01*
X93003678Y-90573776D01*
X92908440Y-90478538D01*
X92860820Y-90335680D01*
X92860820Y-90240442D01*
X92908440Y-90097585D01*
X92956059Y-90049966D01*
X93860820Y-89097585D02*
X93860820Y-89669014D01*
X93860820Y-89383300D02*
X92860820Y-89383300D01*
X93003678Y-89478538D01*
X93098916Y-89573776D01*
X93146535Y-89669014D01*
X128001733Y-88297022D02*
X127954114Y-88344641D01*
X127811257Y-88392260D01*
X127716019Y-88392260D01*
X127573161Y-88344641D01*
X127477923Y-88249403D01*
X127430304Y-88154165D01*
X127382685Y-87963689D01*
X127382685Y-87820832D01*
X127430304Y-87630356D01*
X127477923Y-87535118D01*
X127573161Y-87439880D01*
X127716019Y-87392260D01*
X127811257Y-87392260D01*
X127954114Y-87439880D01*
X128001733Y-87487499D01*
X128858876Y-87392260D02*
X128668400Y-87392260D01*
X128573161Y-87439880D01*
X128525542Y-87487499D01*
X128430304Y-87630356D01*
X128382685Y-87820832D01*
X128382685Y-88201784D01*
X128430304Y-88297022D01*
X128477923Y-88344641D01*
X128573161Y-88392260D01*
X128763638Y-88392260D01*
X128858876Y-88344641D01*
X128906495Y-88297022D01*
X128954114Y-88201784D01*
X128954114Y-87963689D01*
X128906495Y-87868451D01*
X128858876Y-87820832D01*
X128763638Y-87773213D01*
X128573161Y-87773213D01*
X128477923Y-87820832D01*
X128430304Y-87868451D01*
X128382685Y-87963689D01*
X128022053Y-85950062D02*
X127974434Y-85997681D01*
X127831577Y-86045300D01*
X127736339Y-86045300D01*
X127593481Y-85997681D01*
X127498243Y-85902443D01*
X127450624Y-85807205D01*
X127403005Y-85616729D01*
X127403005Y-85473872D01*
X127450624Y-85283396D01*
X127498243Y-85188158D01*
X127593481Y-85092920D01*
X127736339Y-85045300D01*
X127831577Y-85045300D01*
X127974434Y-85092920D01*
X128022053Y-85140539D01*
X128355386Y-85045300D02*
X129022053Y-85045300D01*
X128593481Y-86045300D01*
X120615413Y-76994022D02*
X120567794Y-77041641D01*
X120424937Y-77089260D01*
X120329699Y-77089260D01*
X120186841Y-77041641D01*
X120091603Y-76946403D01*
X120043984Y-76851165D01*
X119996365Y-76660689D01*
X119996365Y-76517832D01*
X120043984Y-76327356D01*
X120091603Y-76232118D01*
X120186841Y-76136880D01*
X120329699Y-76089260D01*
X120424937Y-76089260D01*
X120567794Y-76136880D01*
X120615413Y-76184499D01*
X121186841Y-76517832D02*
X121091603Y-76470213D01*
X121043984Y-76422594D01*
X120996365Y-76327356D01*
X120996365Y-76279737D01*
X121043984Y-76184499D01*
X121091603Y-76136880D01*
X121186841Y-76089260D01*
X121377318Y-76089260D01*
X121472556Y-76136880D01*
X121520175Y-76184499D01*
X121567794Y-76279737D01*
X121567794Y-76327356D01*
X121520175Y-76422594D01*
X121472556Y-76470213D01*
X121377318Y-76517832D01*
X121186841Y-76517832D01*
X121091603Y-76565451D01*
X121043984Y-76613070D01*
X120996365Y-76708308D01*
X120996365Y-76898784D01*
X121043984Y-76994022D01*
X121091603Y-77041641D01*
X121186841Y-77089260D01*
X121377318Y-77089260D01*
X121472556Y-77041641D01*
X121520175Y-76994022D01*
X121567794Y-76898784D01*
X121567794Y-76708308D01*
X121520175Y-76613070D01*
X121472556Y-76565451D01*
X121377318Y-76517832D01*
X114534653Y-70445902D02*
X114487034Y-70493521D01*
X114344177Y-70541140D01*
X114248939Y-70541140D01*
X114106081Y-70493521D01*
X114010843Y-70398283D01*
X113963224Y-70303045D01*
X113915605Y-70112569D01*
X113915605Y-69969712D01*
X113963224Y-69779236D01*
X114010843Y-69683998D01*
X114106081Y-69588760D01*
X114248939Y-69541140D01*
X114344177Y-69541140D01*
X114487034Y-69588760D01*
X114534653Y-69636379D01*
X115010843Y-70541140D02*
X115201320Y-70541140D01*
X115296558Y-70493521D01*
X115344177Y-70445902D01*
X115439415Y-70303045D01*
X115487034Y-70112569D01*
X115487034Y-69731617D01*
X115439415Y-69636379D01*
X115391796Y-69588760D01*
X115296558Y-69541140D01*
X115106081Y-69541140D01*
X115010843Y-69588760D01*
X114963224Y-69636379D01*
X114915605Y-69731617D01*
X114915605Y-69969712D01*
X114963224Y-70064950D01*
X115010843Y-70112569D01*
X115106081Y-70160188D01*
X115296558Y-70160188D01*
X115391796Y-70112569D01*
X115439415Y-70064950D01*
X115487034Y-69969712D01*
X107675940Y-96750095D02*
X106675940Y-96750095D01*
X106675940Y-96512000D01*
X106723560Y-96369142D01*
X106818798Y-96273904D01*
X106914036Y-96226285D01*
X107104512Y-96178666D01*
X107247369Y-96178666D01*
X107437845Y-96226285D01*
X107533083Y-96273904D01*
X107628321Y-96369142D01*
X107675940Y-96512000D01*
X107675940Y-96750095D01*
X107675940Y-95226285D02*
X107675940Y-95797714D01*
X107675940Y-95512000D02*
X106675940Y-95512000D01*
X106818798Y-95607238D01*
X106914036Y-95702476D01*
X106961655Y-95797714D01*
X122310680Y-92575595D02*
X121310680Y-92575595D01*
X121310680Y-92337500D01*
X121358300Y-92194642D01*
X121453538Y-92099404D01*
X121548776Y-92051785D01*
X121739252Y-92004166D01*
X121882109Y-92004166D01*
X122072585Y-92051785D01*
X122167823Y-92099404D01*
X122263061Y-92194642D01*
X122310680Y-92337500D01*
X122310680Y-92575595D01*
X121310680Y-91670833D02*
X121310680Y-91051785D01*
X121691633Y-91385119D01*
X121691633Y-91242261D01*
X121739252Y-91147023D01*
X121786871Y-91099404D01*
X121882109Y-91051785D01*
X122120204Y-91051785D01*
X122215442Y-91099404D01*
X122263061Y-91147023D01*
X122310680Y-91242261D01*
X122310680Y-91527976D01*
X122263061Y-91623214D01*
X122215442Y-91670833D01*
X105276424Y-75753220D02*
X105276424Y-74753220D01*
X105514520Y-74753220D01*
X105657377Y-74800840D01*
X105752615Y-74896078D01*
X105800234Y-74991316D01*
X105847853Y-75181792D01*
X105847853Y-75324649D01*
X105800234Y-75515125D01*
X105752615Y-75610363D01*
X105657377Y-75705601D01*
X105514520Y-75753220D01*
X105276424Y-75753220D01*
X106752615Y-74753220D02*
X106276424Y-74753220D01*
X106228805Y-75229411D01*
X106276424Y-75181792D01*
X106371662Y-75134173D01*
X106609758Y-75134173D01*
X106704996Y-75181792D01*
X106752615Y-75229411D01*
X106800234Y-75324649D01*
X106800234Y-75562744D01*
X106752615Y-75657982D01*
X106704996Y-75705601D01*
X106609758Y-75753220D01*
X106371662Y-75753220D01*
X106276424Y-75705601D01*
X106228805Y-75657982D01*
X131055786Y-59823100D02*
X131055786Y-60537386D01*
X131008167Y-60680243D01*
X130912929Y-60775481D01*
X130770072Y-60823100D01*
X130674834Y-60823100D01*
X131484358Y-59918339D02*
X131531977Y-59870720D01*
X131627215Y-59823100D01*
X131865310Y-59823100D01*
X131960548Y-59870720D01*
X132008167Y-59918339D01*
X132055786Y-60013577D01*
X132055786Y-60108815D01*
X132008167Y-60251672D01*
X131436739Y-60823100D01*
X132055786Y-60823100D01*
X137070506Y-61992260D02*
X137070506Y-62706546D01*
X137022887Y-62849403D01*
X136927649Y-62944641D01*
X136784792Y-62992260D01*
X136689554Y-62992260D01*
X137451459Y-61992260D02*
X138070506Y-61992260D01*
X137737173Y-62373213D01*
X137880030Y-62373213D01*
X137975268Y-62420832D01*
X138022887Y-62468451D01*
X138070506Y-62563689D01*
X138070506Y-62801784D01*
X138022887Y-62897022D01*
X137975268Y-62944641D01*
X137880030Y-62992260D01*
X137594316Y-62992260D01*
X137499078Y-62944641D01*
X137451459Y-62897022D01*
X121271706Y-93955620D02*
X121271706Y-94669906D01*
X121224087Y-94812763D01*
X121128849Y-94908001D01*
X120985992Y-94955620D01*
X120890754Y-94955620D01*
X122224087Y-93955620D02*
X121747897Y-93955620D01*
X121700278Y-94431811D01*
X121747897Y-94384192D01*
X121843135Y-94336573D01*
X122081230Y-94336573D01*
X122176468Y-94384192D01*
X122224087Y-94431811D01*
X122271706Y-94527049D01*
X122271706Y-94765144D01*
X122224087Y-94860382D01*
X122176468Y-94908001D01*
X122081230Y-94955620D01*
X121843135Y-94955620D01*
X121747897Y-94908001D01*
X121700278Y-94860382D01*
X106565106Y-100458020D02*
X106565106Y-101172306D01*
X106517487Y-101315163D01*
X106422249Y-101410401D01*
X106279392Y-101458020D01*
X106184154Y-101458020D01*
X107184154Y-100886592D02*
X107088916Y-100838973D01*
X107041297Y-100791354D01*
X106993678Y-100696116D01*
X106993678Y-100648497D01*
X107041297Y-100553259D01*
X107088916Y-100505640D01*
X107184154Y-100458020D01*
X107374630Y-100458020D01*
X107469868Y-100505640D01*
X107517487Y-100553259D01*
X107565106Y-100648497D01*
X107565106Y-100696116D01*
X107517487Y-100791354D01*
X107469868Y-100838973D01*
X107374630Y-100886592D01*
X107184154Y-100886592D01*
X107088916Y-100934211D01*
X107041297Y-100981830D01*
X106993678Y-101077068D01*
X106993678Y-101267544D01*
X107041297Y-101362782D01*
X107088916Y-101410401D01*
X107184154Y-101458020D01*
X107374630Y-101458020D01*
X107469868Y-101410401D01*
X107517487Y-101362782D01*
X107565106Y-101267544D01*
X107565106Y-101077068D01*
X107517487Y-100981830D01*
X107469868Y-100934211D01*
X107374630Y-100886592D01*
X111833066Y-94191020D02*
X111833066Y-94905306D01*
X111785447Y-95048163D01*
X111690209Y-95143401D01*
X111547352Y-95191020D01*
X111452114Y-95191020D01*
X112356876Y-95191020D02*
X112547352Y-95191020D01*
X112642590Y-95143401D01*
X112690209Y-95095782D01*
X112785447Y-94952925D01*
X112833066Y-94762449D01*
X112833066Y-94381497D01*
X112785447Y-94286259D01*
X112737828Y-94238640D01*
X112642590Y-94191020D01*
X112452114Y-94191020D01*
X112356876Y-94238640D01*
X112309257Y-94286259D01*
X112261638Y-94381497D01*
X112261638Y-94619592D01*
X112309257Y-94714830D01*
X112356876Y-94762449D01*
X112452114Y-94810068D01*
X112642590Y-94810068D01*
X112737828Y-94762449D01*
X112785447Y-94714830D01*
X112833066Y-94619592D01*
X96919516Y-70851780D02*
X96919516Y-71566066D01*
X96871897Y-71708923D01*
X96776659Y-71804161D01*
X96633801Y-71851780D01*
X96538563Y-71851780D01*
X97919516Y-71851780D02*
X97348087Y-71851780D01*
X97633801Y-71851780D02*
X97633801Y-70851780D01*
X97538563Y-70994638D01*
X97443325Y-71089876D01*
X97348087Y-71137495D01*
X98871897Y-71851780D02*
X98300468Y-71851780D01*
X98586182Y-71851780D02*
X98586182Y-70851780D01*
X98490944Y-70994638D01*
X98395706Y-71089876D01*
X98300468Y-71137495D01*
X94150916Y-74560180D02*
X94150916Y-75274466D01*
X94103297Y-75417323D01*
X94008059Y-75512561D01*
X93865201Y-75560180D01*
X93769963Y-75560180D01*
X95150916Y-75560180D02*
X94579487Y-75560180D01*
X94865201Y-75560180D02*
X94865201Y-74560180D01*
X94769963Y-74703038D01*
X94674725Y-74798276D01*
X94579487Y-74845895D01*
X96008059Y-74893514D02*
X96008059Y-75560180D01*
X95769963Y-74512561D02*
X95531868Y-75226847D01*
X96150916Y-75226847D01*
X134807480Y-77962023D02*
X135521766Y-77962023D01*
X135664623Y-78009642D01*
X135759861Y-78104880D01*
X135807480Y-78247738D01*
X135807480Y-78342976D01*
X135807480Y-76962023D02*
X135807480Y-77533452D01*
X135807480Y-77247738D02*
X134807480Y-77247738D01*
X134950338Y-77342976D01*
X135045576Y-77438214D01*
X135093195Y-77533452D01*
X134807480Y-76057261D02*
X134807480Y-76533452D01*
X135283671Y-76581071D01*
X135236052Y-76533452D01*
X135188433Y-76438214D01*
X135188433Y-76200119D01*
X135236052Y-76104880D01*
X135283671Y-76057261D01*
X135378909Y-76009642D01*
X135617004Y-76009642D01*
X135712242Y-76057261D01*
X135759861Y-76104880D01*
X135807480Y-76200119D01*
X135807480Y-76438214D01*
X135759861Y-76533452D01*
X135712242Y-76581071D01*
X132436573Y-97927420D02*
X132103240Y-97451230D01*
X131865144Y-97927420D02*
X131865144Y-96927420D01*
X132246097Y-96927420D01*
X132341335Y-96975040D01*
X132388954Y-97022659D01*
X132436573Y-97117897D01*
X132436573Y-97260754D01*
X132388954Y-97355992D01*
X132341335Y-97403611D01*
X132246097Y-97451230D01*
X131865144Y-97451230D01*
X133388954Y-97927420D02*
X132817525Y-97927420D01*
X133103240Y-97927420D02*
X133103240Y-96927420D01*
X133008001Y-97070278D01*
X132912763Y-97165516D01*
X132817525Y-97213135D01*
X135134053Y-97983300D02*
X134800720Y-97507110D01*
X134562624Y-97983300D02*
X134562624Y-96983300D01*
X134943577Y-96983300D01*
X135038815Y-97030920D01*
X135086434Y-97078539D01*
X135134053Y-97173777D01*
X135134053Y-97316634D01*
X135086434Y-97411872D01*
X135038815Y-97459491D01*
X134943577Y-97507110D01*
X134562624Y-97507110D01*
X136038815Y-96983300D02*
X135562624Y-96983300D01*
X135515005Y-97459491D01*
X135562624Y-97411872D01*
X135657862Y-97364253D01*
X135895958Y-97364253D01*
X135991196Y-97411872D01*
X136038815Y-97459491D01*
X136086434Y-97554729D01*
X136086434Y-97792824D01*
X136038815Y-97888062D01*
X135991196Y-97935681D01*
X135895958Y-97983300D01*
X135657862Y-97983300D01*
X135562624Y-97935681D01*
X135515005Y-97888062D01*
X106188213Y-87513420D02*
X105854880Y-87037230D01*
X105616784Y-87513420D02*
X105616784Y-86513420D01*
X105997737Y-86513420D01*
X106092975Y-86561040D01*
X106140594Y-86608659D01*
X106188213Y-86703897D01*
X106188213Y-86846754D01*
X106140594Y-86941992D01*
X106092975Y-86989611D01*
X105997737Y-87037230D01*
X105616784Y-87037230D01*
X107045356Y-86513420D02*
X106854880Y-86513420D01*
X106759641Y-86561040D01*
X106712022Y-86608659D01*
X106616784Y-86751516D01*
X106569165Y-86941992D01*
X106569165Y-87322944D01*
X106616784Y-87418182D01*
X106664403Y-87465801D01*
X106759641Y-87513420D01*
X106950118Y-87513420D01*
X107045356Y-87465801D01*
X107092975Y-87418182D01*
X107140594Y-87322944D01*
X107140594Y-87084849D01*
X107092975Y-86989611D01*
X107045356Y-86941992D01*
X106950118Y-86894373D01*
X106759641Y-86894373D01*
X106664403Y-86941992D01*
X106616784Y-86989611D01*
X106569165Y-87084849D01*
X110611633Y-90658680D02*
X110278300Y-90182490D01*
X110040204Y-90658680D02*
X110040204Y-89658680D01*
X110421157Y-89658680D01*
X110516395Y-89706300D01*
X110564014Y-89753919D01*
X110611633Y-89849157D01*
X110611633Y-89992014D01*
X110564014Y-90087252D01*
X110516395Y-90134871D01*
X110421157Y-90182490D01*
X110040204Y-90182490D01*
X110944966Y-89658680D02*
X111611633Y-89658680D01*
X111183061Y-90658680D01*
X93775260Y-85076277D02*
X93299070Y-85409610D01*
X93775260Y-85647705D02*
X92775260Y-85647705D01*
X92775260Y-85266753D01*
X92822880Y-85171515D01*
X92870499Y-85123896D01*
X92965737Y-85076277D01*
X93108594Y-85076277D01*
X93203832Y-85123896D01*
X93251451Y-85171515D01*
X93299070Y-85266753D01*
X93299070Y-85647705D01*
X93775260Y-84123896D02*
X93775260Y-84695324D01*
X93775260Y-84409610D02*
X92775260Y-84409610D01*
X92918118Y-84504848D01*
X93013356Y-84600086D01*
X93060975Y-84695324D01*
X92775260Y-83504848D02*
X92775260Y-83409610D01*
X92822880Y-83314372D01*
X92870499Y-83266753D01*
X92965737Y-83219134D01*
X93156213Y-83171515D01*
X93394308Y-83171515D01*
X93584784Y-83219134D01*
X93680022Y-83266753D01*
X93727641Y-83314372D01*
X93775260Y-83409610D01*
X93775260Y-83504848D01*
X93727641Y-83600086D01*
X93680022Y-83647705D01*
X93584784Y-83695324D01*
X93394308Y-83742943D01*
X93156213Y-83742943D01*
X92965737Y-83695324D01*
X92870499Y-83647705D01*
X92822880Y-83600086D01*
X92775260Y-83504848D01*
X106885502Y-80899260D02*
X106552169Y-80423070D01*
X106314074Y-80899260D02*
X106314074Y-79899260D01*
X106695026Y-79899260D01*
X106790264Y-79946880D01*
X106837883Y-79994499D01*
X106885502Y-80089737D01*
X106885502Y-80232594D01*
X106837883Y-80327832D01*
X106790264Y-80375451D01*
X106695026Y-80423070D01*
X106314074Y-80423070D01*
X107837883Y-80899260D02*
X107266455Y-80899260D01*
X107552169Y-80899260D02*
X107552169Y-79899260D01*
X107456931Y-80042118D01*
X107361693Y-80137356D01*
X107266455Y-80184975D01*
X108171217Y-79899260D02*
X108790264Y-79899260D01*
X108456931Y-80280213D01*
X108599788Y-80280213D01*
X108695026Y-80327832D01*
X108742645Y-80375451D01*
X108790264Y-80470689D01*
X108790264Y-80708784D01*
X108742645Y-80804022D01*
X108695026Y-80851641D01*
X108599788Y-80899260D01*
X108314074Y-80899260D01*
X108218836Y-80851641D01*
X108171217Y-80804022D01*
X106950040Y-65791317D02*
X106473850Y-66124650D01*
X106950040Y-66362745D02*
X105950040Y-66362745D01*
X105950040Y-65981793D01*
X105997660Y-65886555D01*
X106045279Y-65838936D01*
X106140517Y-65791317D01*
X106283374Y-65791317D01*
X106378612Y-65838936D01*
X106426231Y-65886555D01*
X106473850Y-65981793D01*
X106473850Y-66362745D01*
X106950040Y-64838936D02*
X106950040Y-65410364D01*
X106950040Y-65124650D02*
X105950040Y-65124650D01*
X106092898Y-65219888D01*
X106188136Y-65315126D01*
X106235755Y-65410364D01*
X106283374Y-63981793D02*
X106950040Y-63981793D01*
X105902421Y-64219888D02*
X106616707Y-64457983D01*
X106616707Y-63838936D01*
X112835462Y-63926240D02*
X112502129Y-63450050D01*
X112264034Y-63926240D02*
X112264034Y-62926240D01*
X112644986Y-62926240D01*
X112740224Y-62973860D01*
X112787843Y-63021479D01*
X112835462Y-63116717D01*
X112835462Y-63259574D01*
X112787843Y-63354812D01*
X112740224Y-63402431D01*
X112644986Y-63450050D01*
X112264034Y-63450050D01*
X113787843Y-63926240D02*
X113216415Y-63926240D01*
X113502129Y-63926240D02*
X113502129Y-62926240D01*
X113406891Y-63069098D01*
X113311653Y-63164336D01*
X113216415Y-63211955D01*
X114692605Y-62926240D02*
X114216415Y-62926240D01*
X114168796Y-63402431D01*
X114216415Y-63354812D01*
X114311653Y-63307193D01*
X114549748Y-63307193D01*
X114644986Y-63354812D01*
X114692605Y-63402431D01*
X114740224Y-63497669D01*
X114740224Y-63735764D01*
X114692605Y-63831002D01*
X114644986Y-63878621D01*
X114549748Y-63926240D01*
X114311653Y-63926240D01*
X114216415Y-63878621D01*
X114168796Y-63831002D01*
X127997982Y-83998060D02*
X127664649Y-83521870D01*
X127426554Y-83998060D02*
X127426554Y-82998060D01*
X127807506Y-82998060D01*
X127902744Y-83045680D01*
X127950363Y-83093299D01*
X127997982Y-83188537D01*
X127997982Y-83331394D01*
X127950363Y-83426632D01*
X127902744Y-83474251D01*
X127807506Y-83521870D01*
X127426554Y-83521870D01*
X128950363Y-83998060D02*
X128378935Y-83998060D01*
X128664649Y-83998060D02*
X128664649Y-82998060D01*
X128569411Y-83140918D01*
X128474173Y-83236156D01*
X128378935Y-83283775D01*
X129807506Y-82998060D02*
X129617030Y-82998060D01*
X129521792Y-83045680D01*
X129474173Y-83093299D01*
X129378935Y-83236156D01*
X129331316Y-83426632D01*
X129331316Y-83807584D01*
X129378935Y-83902822D01*
X129426554Y-83950441D01*
X129521792Y-83998060D01*
X129712268Y-83998060D01*
X129807506Y-83950441D01*
X129855125Y-83902822D01*
X129902744Y-83807584D01*
X129902744Y-83569489D01*
X129855125Y-83474251D01*
X129807506Y-83426632D01*
X129712268Y-83379013D01*
X129521792Y-83379013D01*
X129426554Y-83426632D01*
X129378935Y-83474251D01*
X129331316Y-83569489D01*
X91924902Y-62032140D02*
X91591569Y-61555950D01*
X91353474Y-62032140D02*
X91353474Y-61032140D01*
X91734426Y-61032140D01*
X91829664Y-61079760D01*
X91877283Y-61127379D01*
X91924902Y-61222617D01*
X91924902Y-61365474D01*
X91877283Y-61460712D01*
X91829664Y-61508331D01*
X91734426Y-61555950D01*
X91353474Y-61555950D01*
X92877283Y-62032140D02*
X92305855Y-62032140D01*
X92591569Y-62032140D02*
X92591569Y-61032140D01*
X92496331Y-61174998D01*
X92401093Y-61270236D01*
X92305855Y-61317855D01*
X93210617Y-61032140D02*
X93877283Y-61032140D01*
X93448712Y-62032140D01*
X129725182Y-81405460D02*
X129391849Y-80929270D01*
X129153754Y-81405460D02*
X129153754Y-80405460D01*
X129534706Y-80405460D01*
X129629944Y-80453080D01*
X129677563Y-80500699D01*
X129725182Y-80595937D01*
X129725182Y-80738794D01*
X129677563Y-80834032D01*
X129629944Y-80881651D01*
X129534706Y-80929270D01*
X129153754Y-80929270D01*
X130677563Y-81405460D02*
X130106135Y-81405460D01*
X130391849Y-81405460D02*
X130391849Y-80405460D01*
X130296611Y-80548318D01*
X130201373Y-80643556D01*
X130106135Y-80691175D01*
X131248992Y-80834032D02*
X131153754Y-80786413D01*
X131106135Y-80738794D01*
X131058516Y-80643556D01*
X131058516Y-80595937D01*
X131106135Y-80500699D01*
X131153754Y-80453080D01*
X131248992Y-80405460D01*
X131439468Y-80405460D01*
X131534706Y-80453080D01*
X131582325Y-80500699D01*
X131629944Y-80595937D01*
X131629944Y-80643556D01*
X131582325Y-80738794D01*
X131534706Y-80786413D01*
X131439468Y-80834032D01*
X131248992Y-80834032D01*
X131153754Y-80881651D01*
X131106135Y-80929270D01*
X131058516Y-81024508D01*
X131058516Y-81214984D01*
X131106135Y-81310222D01*
X131153754Y-81357841D01*
X131248992Y-81405460D01*
X131439468Y-81405460D01*
X131534706Y-81357841D01*
X131582325Y-81310222D01*
X131629944Y-81214984D01*
X131629944Y-81024508D01*
X131582325Y-80929270D01*
X131534706Y-80881651D01*
X131439468Y-80834032D01*
X129708682Y-75942980D02*
X129375349Y-75466790D01*
X129137254Y-75942980D02*
X129137254Y-74942980D01*
X129518206Y-74942980D01*
X129613444Y-74990600D01*
X129661063Y-75038219D01*
X129708682Y-75133457D01*
X129708682Y-75276314D01*
X129661063Y-75371552D01*
X129613444Y-75419171D01*
X129518206Y-75466790D01*
X129137254Y-75466790D01*
X130661063Y-75942980D02*
X130089635Y-75942980D01*
X130375349Y-75942980D02*
X130375349Y-74942980D01*
X130280111Y-75085838D01*
X130184873Y-75181076D01*
X130089635Y-75228695D01*
X131137254Y-75942980D02*
X131327730Y-75942980D01*
X131422968Y-75895361D01*
X131470587Y-75847742D01*
X131565825Y-75704885D01*
X131613444Y-75514409D01*
X131613444Y-75133457D01*
X131565825Y-75038219D01*
X131518206Y-74990600D01*
X131422968Y-74942980D01*
X131232492Y-74942980D01*
X131137254Y-74990600D01*
X131089635Y-75038219D01*
X131042016Y-75133457D01*
X131042016Y-75371552D01*
X131089635Y-75466790D01*
X131137254Y-75514409D01*
X131232492Y-75562028D01*
X131422968Y-75562028D01*
X131518206Y-75514409D01*
X131565825Y-75466790D01*
X131613444Y-75371552D01*
X125666621Y-100456833D02*
X125714240Y-100313976D01*
X125714240Y-100075880D01*
X125666621Y-99980642D01*
X125619002Y-99933023D01*
X125523764Y-99885404D01*
X125428526Y-99885404D01*
X125333288Y-99933023D01*
X125285669Y-99980642D01*
X125238050Y-100075880D01*
X125190431Y-100266357D01*
X125142812Y-100361595D01*
X125095193Y-100409214D01*
X124999955Y-100456833D01*
X124904717Y-100456833D01*
X124809479Y-100409214D01*
X124761860Y-100361595D01*
X124714240Y-100266357D01*
X124714240Y-100028261D01*
X124761860Y-99885404D01*
X124714240Y-99552071D02*
X125714240Y-99313976D01*
X124999955Y-99123500D01*
X125714240Y-98933023D01*
X124714240Y-98694928D01*
X125714240Y-97790166D02*
X125714240Y-98361595D01*
X125714240Y-98075880D02*
X124714240Y-98075880D01*
X124857098Y-98171119D01*
X124952336Y-98266357D01*
X124999955Y-98361595D01*
X99371561Y-90594013D02*
X99419180Y-90451156D01*
X99419180Y-90213060D01*
X99371561Y-90117822D01*
X99323942Y-90070203D01*
X99228704Y-90022584D01*
X99133466Y-90022584D01*
X99038228Y-90070203D01*
X98990609Y-90117822D01*
X98942990Y-90213060D01*
X98895371Y-90403537D01*
X98847752Y-90498775D01*
X98800133Y-90546394D01*
X98704895Y-90594013D01*
X98609657Y-90594013D01*
X98514419Y-90546394D01*
X98466800Y-90498775D01*
X98419180Y-90403537D01*
X98419180Y-90165441D01*
X98466800Y-90022584D01*
X98419180Y-89689251D02*
X99419180Y-89451156D01*
X98704895Y-89260680D01*
X99419180Y-89070203D01*
X98419180Y-88832108D01*
X98514419Y-88498775D02*
X98466800Y-88451156D01*
X98419180Y-88355918D01*
X98419180Y-88117822D01*
X98466800Y-88022584D01*
X98514419Y-87974965D01*
X98609657Y-87927346D01*
X98704895Y-87927346D01*
X98847752Y-87974965D01*
X99419180Y-88546394D01*
X99419180Y-87927346D01*
X115036695Y-75595980D02*
X115036695Y-76405504D01*
X115084314Y-76500742D01*
X115131933Y-76548361D01*
X115227171Y-76595980D01*
X115417647Y-76595980D01*
X115512885Y-76548361D01*
X115560504Y-76500742D01*
X115608123Y-76405504D01*
X115608123Y-75595980D01*
X116608123Y-76595980D02*
X116036695Y-76595980D01*
X116322409Y-76595980D02*
X116322409Y-75595980D01*
X116227171Y-75738838D01*
X116131933Y-75834076D01*
X116036695Y-75881695D01*
X106178220Y-72628664D02*
X106987744Y-72628664D01*
X107082982Y-72581045D01*
X107130601Y-72533426D01*
X107178220Y-72438188D01*
X107178220Y-72247712D01*
X107130601Y-72152474D01*
X107082982Y-72104855D01*
X106987744Y-72057236D01*
X106178220Y-72057236D01*
X106273459Y-71628664D02*
X106225840Y-71581045D01*
X106178220Y-71485807D01*
X106178220Y-71247712D01*
X106225840Y-71152474D01*
X106273459Y-71104855D01*
X106368697Y-71057236D01*
X106463935Y-71057236D01*
X106606792Y-71104855D01*
X107178220Y-71676283D01*
X107178220Y-71057236D01*
X124805535Y-76180700D02*
X124805535Y-76990224D01*
X124853154Y-77085462D01*
X124900773Y-77133081D01*
X124996011Y-77180700D01*
X125186487Y-77180700D01*
X125281725Y-77133081D01*
X125329344Y-77085462D01*
X125376963Y-76990224D01*
X125376963Y-76180700D01*
X125757916Y-76180700D02*
X126376963Y-76180700D01*
X126043630Y-76561653D01*
X126186487Y-76561653D01*
X126281725Y-76609272D01*
X126329344Y-76656891D01*
X126376963Y-76752129D01*
X126376963Y-76990224D01*
X126329344Y-77085462D01*
X126281725Y-77133081D01*
X126186487Y-77180700D01*
X125900773Y-77180700D01*
X125805535Y-77133081D01*
X125757916Y-77085462D01*
X121780395Y-64591560D02*
X121780395Y-65401084D01*
X121828014Y-65496322D01*
X121875633Y-65543941D01*
X121970871Y-65591560D01*
X122161347Y-65591560D01*
X122256585Y-65543941D01*
X122304204Y-65496322D01*
X122351823Y-65401084D01*
X122351823Y-64591560D01*
X123256585Y-64924894D02*
X123256585Y-65591560D01*
X123018490Y-64543941D02*
X122780395Y-65258227D01*
X123399442Y-65258227D01*
X101723249Y-75277030D02*
X101723249Y-75753220D01*
X101389916Y-74753220D02*
X101723249Y-75277030D01*
X102056582Y-74753220D01*
X102913725Y-75753220D02*
X102342297Y-75753220D01*
X102628011Y-75753220D02*
X102628011Y-74753220D01*
X102532773Y-74896078D01*
X102437535Y-74991316D01*
X102342297Y-75038935D01*
X96780409Y-78518070D02*
X96780409Y-78994260D01*
X96447076Y-77994260D02*
X96780409Y-78518070D01*
X97113742Y-77994260D01*
X97399457Y-78089499D02*
X97447076Y-78041880D01*
X97542314Y-77994260D01*
X97780409Y-77994260D01*
X97875647Y-78041880D01*
X97923266Y-78089499D01*
X97970885Y-78184737D01*
X97970885Y-78279975D01*
X97923266Y-78422832D01*
X97351838Y-78994260D01*
X97970885Y-78994260D01*
X118408180Y-90859857D02*
X117931990Y-91193190D01*
X118408180Y-91431285D02*
X117408180Y-91431285D01*
X117408180Y-91050333D01*
X117455800Y-90955095D01*
X117503419Y-90907476D01*
X117598657Y-90859857D01*
X117741514Y-90859857D01*
X117836752Y-90907476D01*
X117884371Y-90955095D01*
X117931990Y-91050333D01*
X117931990Y-91431285D01*
X118408180Y-89907476D02*
X118408180Y-90478904D01*
X118408180Y-90193190D02*
X117408180Y-90193190D01*
X117551038Y-90288428D01*
X117646276Y-90383666D01*
X117693895Y-90478904D01*
X118408180Y-88955095D02*
X118408180Y-89526523D01*
X118408180Y-89240809D02*
X117408180Y-89240809D01*
X117551038Y-89336047D01*
X117646276Y-89431285D01*
X117693895Y-89526523D01*
X136780946Y-99823020D02*
X136780946Y-100537306D01*
X136733327Y-100680163D01*
X136638089Y-100775401D01*
X136495232Y-100823020D01*
X136399994Y-100823020D01*
X137685708Y-100156354D02*
X137685708Y-100823020D01*
X137447613Y-99775401D02*
X137209518Y-100489687D01*
X137828565Y-100489687D01*
X112002036Y-59609740D02*
X112002036Y-60324026D01*
X111954417Y-60466883D01*
X111859179Y-60562121D01*
X111716321Y-60609740D01*
X111621083Y-60609740D01*
X113002036Y-60609740D02*
X112430607Y-60609740D01*
X112716321Y-60609740D02*
X112716321Y-59609740D01*
X112621083Y-59752598D01*
X112525845Y-59847836D01*
X112430607Y-59895455D01*
X113382988Y-59704979D02*
X113430607Y-59657360D01*
X113525845Y-59609740D01*
X113763940Y-59609740D01*
X113859179Y-59657360D01*
X113906798Y-59704979D01*
X113954417Y-59800217D01*
X113954417Y-59895455D01*
X113906798Y-60038312D01*
X113335369Y-60609740D01*
X113954417Y-60609740D01*
X131624746Y-83145380D02*
X131624746Y-83859666D01*
X131577127Y-84002523D01*
X131481889Y-84097761D01*
X131339032Y-84145380D01*
X131243794Y-84145380D01*
X132529508Y-83145380D02*
X132339032Y-83145380D01*
X132243794Y-83193000D01*
X132196175Y-83240619D01*
X132100937Y-83383476D01*
X132053318Y-83573952D01*
X132053318Y-83954904D01*
X132100937Y-84050142D01*
X132148556Y-84097761D01*
X132243794Y-84145380D01*
X132434270Y-84145380D01*
X132529508Y-84097761D01*
X132577127Y-84050142D01*
X132624746Y-83954904D01*
X132624746Y-83716809D01*
X132577127Y-83621571D01*
X132529508Y-83573952D01*
X132434270Y-83526333D01*
X132243794Y-83526333D01*
X132148556Y-83573952D01*
X132100937Y-83621571D01*
X132053318Y-83716809D01*
M02*
