G04 #@! TF.GenerationSoftware,KiCad,Pcbnew,(5.1.5)-3*
G04 #@! TF.CreationDate,2020-04-28T00:17:26+02:00*
G04 #@! TF.ProjectId,main_pcb,6d61696e-5f70-4636-922e-6b696361645f,1*
G04 #@! TF.SameCoordinates,Original*
G04 #@! TF.FileFunction,Copper,L1,Top*
G04 #@! TF.FilePolarity,Positive*
%FSLAX46Y46*%
G04 Gerber Fmt 4.6, Leading zero omitted, Abs format (unit mm)*
G04 Created by KiCad (PCBNEW (5.1.5)-3) date 2020-04-28 00:17:26*
%MOMM*%
%LPD*%
G04 APERTURE LIST*
%ADD10R,1.700000X1.700000*%
%ADD11O,1.700000X1.700000*%
%ADD12R,1.250000X1.500000*%
%ADD13R,1.500000X1.250000*%
%ADD14R,1.300000X1.500000*%
%ADD15R,1.500000X1.300000*%
%ADD16R,1.350000X0.400000*%
%ADD17O,0.950000X1.250000*%
%ADD18O,1.550000X1.000000*%
%ADD19C,1.440000*%
%ADD20R,1.600000X2.000000*%
%ADD21R,1.300000X0.250000*%
%ADD22R,0.250000X1.300000*%
%ADD23R,0.600000X1.550000*%
%ADD24R,0.650000X1.560000*%
%ADD25R,2.000000X3.800000*%
%ADD26R,2.000000X1.500000*%
%ADD27C,1.500000*%
%ADD28C,1.000000*%
%ADD29C,0.800000*%
%ADD30C,0.250000*%
%ADD31C,0.500000*%
G04 APERTURE END LIST*
D10*
X130800000Y-92500000D03*
D11*
X133340000Y-92500000D03*
X135880000Y-92500000D03*
X138420000Y-92500000D03*
X140960000Y-92500000D03*
D12*
X91658440Y-88633300D03*
X91658440Y-91133300D03*
D13*
X126073220Y-87944960D03*
X123573220Y-87944960D03*
X126043060Y-85476080D03*
X123543060Y-85476080D03*
X120495380Y-74978260D03*
X117995380Y-74978260D03*
D12*
X116644420Y-71330820D03*
X116644420Y-68830820D03*
D14*
X109049820Y-97745540D03*
X109049820Y-95045540D03*
X123558300Y-90487500D03*
X123558300Y-93187500D03*
D15*
X106396800Y-76824840D03*
X109096800Y-76824840D03*
D10*
X128501140Y-60370720D03*
D11*
X125961140Y-60370720D03*
X123421140Y-60370720D03*
X120881140Y-60370720D03*
X141013180Y-70243700D03*
X138473180Y-70243700D03*
X141013180Y-67703700D03*
X138473180Y-67703700D03*
X141013180Y-65163700D03*
D10*
X138473180Y-65163700D03*
X122191780Y-97066100D03*
X109819440Y-101041200D03*
D11*
X112359440Y-101041200D03*
X114899440Y-101041200D03*
X117439440Y-101041200D03*
X119979440Y-101041200D03*
X122519440Y-101041200D03*
D10*
X112166400Y-97068640D03*
X98651060Y-68856860D03*
D11*
X98651060Y-66316860D03*
X101191060Y-68856860D03*
X101191060Y-66316860D03*
D10*
X91706700Y-75067160D03*
D11*
X91706700Y-77607160D03*
X91706700Y-80147160D03*
D16*
X137245100Y-78452500D03*
X137245100Y-77802500D03*
X137245100Y-77152500D03*
X137245100Y-76502500D03*
X137245100Y-75852500D03*
D17*
X137245100Y-79652500D03*
X137245100Y-74652500D03*
D18*
X139945100Y-80652500D03*
X139945100Y-73652500D03*
D14*
X131927600Y-99133660D03*
X131927600Y-101833660D03*
X134221220Y-101876840D03*
X134221220Y-99176840D03*
D15*
X109240300Y-85341460D03*
X106540300Y-85341460D03*
X109428300Y-88506300D03*
X112128300Y-88506300D03*
D14*
X91622880Y-85783420D03*
X91622880Y-83083420D03*
D15*
X109118400Y-78806040D03*
X106418400Y-78806040D03*
D14*
X108197660Y-63798460D03*
X108197660Y-66498460D03*
D15*
X112128320Y-65173860D03*
X114828320Y-65173860D03*
X126171960Y-83545680D03*
X123471960Y-83545680D03*
D19*
X92585540Y-64952880D03*
X92585540Y-67492880D03*
X92585540Y-70032880D03*
D15*
X129018040Y-79253080D03*
X131718040Y-79253080D03*
X129001540Y-77190600D03*
X131701540Y-77190600D03*
D20*
X127911860Y-96423500D03*
X127911860Y-101823500D03*
X96316800Y-86560680D03*
X96316800Y-91960680D03*
D21*
X111448600Y-79393600D03*
X111448600Y-79893600D03*
X111448600Y-80393600D03*
X111448600Y-80893600D03*
X111448600Y-81393600D03*
X111448600Y-81893600D03*
X111448600Y-82393600D03*
X111448600Y-82893600D03*
X111448600Y-83393600D03*
X111448600Y-83893600D03*
X111448600Y-84393600D03*
X111448600Y-84893600D03*
D22*
X113048600Y-86493600D03*
X113548600Y-86493600D03*
X114048600Y-86493600D03*
X114548600Y-86493600D03*
X115048600Y-86493600D03*
X115548600Y-86493600D03*
X116048600Y-86493600D03*
X116548600Y-86493600D03*
X117048600Y-86493600D03*
X117548600Y-86493600D03*
X118048600Y-86493600D03*
X118548600Y-86493600D03*
D21*
X120148600Y-84893600D03*
X120148600Y-84393600D03*
X120148600Y-83893600D03*
X120148600Y-83393600D03*
X120148600Y-82893600D03*
X120148600Y-82393600D03*
X120148600Y-81893600D03*
X120148600Y-81393600D03*
X120148600Y-80893600D03*
X120148600Y-80393600D03*
X120148600Y-79893600D03*
X120148600Y-79393600D03*
D22*
X118548600Y-77793600D03*
X118048600Y-77793600D03*
X117548600Y-77793600D03*
X117048600Y-77793600D03*
X116548600Y-77793600D03*
X116048600Y-77793600D03*
X115548600Y-77793600D03*
X115048600Y-77793600D03*
X114548600Y-77793600D03*
X114048600Y-77793600D03*
X113548600Y-77793600D03*
X113048600Y-77793600D03*
D23*
X108320840Y-74566760D03*
X109590840Y-74566760D03*
X110860840Y-74566760D03*
X112130840Y-74566760D03*
X112130840Y-69166760D03*
X110860840Y-69166760D03*
X109590840Y-69166760D03*
X108320840Y-69166760D03*
D24*
X123413480Y-81116160D03*
X124363480Y-81116160D03*
X125313480Y-81116160D03*
X125313480Y-78416160D03*
X123413480Y-78416160D03*
X124363480Y-78416160D03*
D25*
X125692300Y-69639180D03*
D26*
X119392300Y-69639180D03*
X119392300Y-71939180D03*
X119392300Y-67339180D03*
D27*
X102199440Y-79420720D03*
X102199440Y-84320720D03*
D28*
X97205800Y-80365600D03*
X97205800Y-82905600D03*
D14*
X116255800Y-91567000D03*
X116255800Y-88867000D03*
D11*
X139829540Y-96192340D03*
X139829540Y-98732340D03*
D10*
X139829540Y-101272340D03*
X116039900Y-60373260D03*
X134696200Y-83703160D03*
D11*
X137236200Y-83703160D03*
X134696200Y-86243160D03*
X137236200Y-86243160D03*
X134696200Y-88783160D03*
X137236200Y-88783160D03*
X139776200Y-83703160D03*
X139776200Y-86243160D03*
X139776200Y-88783160D03*
D29*
X109186980Y-71904860D03*
X114998679Y-67276801D03*
X118186200Y-88922860D03*
X132351780Y-67269360D03*
X93576140Y-91132660D03*
X118193820Y-93913960D03*
X118773600Y-81613471D03*
X112823600Y-79888080D03*
X118267480Y-79395320D03*
X131953000Y-66141600D03*
X117340380Y-65265300D03*
X114548991Y-81613471D03*
X126954280Y-80246161D03*
X124363480Y-75660360D03*
X112245140Y-99011740D03*
X134228840Y-90530680D03*
X109326680Y-87274400D03*
X104233594Y-86771011D03*
X109380020Y-83195160D03*
X124627640Y-96426020D03*
X135912860Y-101394260D03*
X131150360Y-96903540D03*
X132527040Y-90017600D03*
X111478060Y-78518600D03*
X113591340Y-68374260D03*
X116273600Y-74564240D03*
X114805460Y-74569320D03*
X121889520Y-84876640D03*
X120967500Y-85768600D03*
X119806720Y-85768600D03*
X126984760Y-81295240D03*
X122084459Y-79288899D03*
X120200420Y-77830680D03*
D30*
X113548600Y-76933598D02*
X113035982Y-76420980D01*
X113548600Y-77793600D02*
X113548600Y-76933598D01*
X113035982Y-76420980D02*
X111587280Y-76420980D01*
X110860840Y-75694540D02*
X110860840Y-74566760D01*
X111587280Y-76420980D02*
X110860840Y-75694540D01*
X109223940Y-71904860D02*
X109186980Y-71904860D01*
X110860840Y-73541760D02*
X109223940Y-71904860D01*
X110860840Y-74566760D02*
X110860840Y-73541760D01*
X109590840Y-71501000D02*
X109186980Y-71904860D01*
X109590840Y-69166760D02*
X109590840Y-71501000D01*
X108320840Y-69166760D02*
X109590840Y-69166760D01*
D31*
X115061058Y-67339180D02*
X114998679Y-67276801D01*
D30*
X114998679Y-67276801D02*
X115090401Y-67276801D01*
D31*
X124426980Y-99133660D02*
X122519440Y-101041200D01*
X131927600Y-99133660D02*
X124426980Y-99133660D01*
D30*
X118048600Y-88785260D02*
X118048600Y-86493600D01*
X118186200Y-88922860D02*
X118048600Y-88785260D01*
X122519440Y-101041200D02*
X118193820Y-96715580D01*
X118193820Y-96715580D02*
X118193820Y-93913960D01*
X111448600Y-82893600D02*
X112308602Y-82893600D01*
X119248600Y-79893600D02*
X120148600Y-79893600D01*
X118048600Y-81093600D02*
X119248600Y-79893600D01*
X118048600Y-86493600D02*
X118048600Y-81093600D01*
X124363480Y-82146160D02*
X124363480Y-81116160D01*
X124546961Y-82329641D02*
X124363480Y-82146160D01*
X124546961Y-84104981D02*
X124546961Y-82329641D01*
X125918060Y-85476080D02*
X124546961Y-84104981D01*
X126043060Y-85476080D02*
X125918060Y-85476080D01*
X137245100Y-75852500D02*
X137245100Y-76502500D01*
X132351780Y-71884180D02*
X132351780Y-67269360D01*
X137245100Y-75852500D02*
X136320100Y-75852500D01*
X136320100Y-75852500D02*
X132351780Y-71884180D01*
D31*
X119392300Y-61859560D02*
X120881140Y-60370720D01*
X119392300Y-67339180D02*
X119392300Y-61859560D01*
D30*
X118193820Y-92605020D02*
X118193820Y-93348275D01*
X117155800Y-91567000D02*
X118193820Y-92605020D01*
X116255800Y-91567000D02*
X117155800Y-91567000D01*
X115048600Y-78693600D02*
X114616120Y-79126080D01*
X115048600Y-77793600D02*
X115048600Y-78693600D01*
X126073220Y-85506240D02*
X126043060Y-85476080D01*
X126073220Y-87944960D02*
X126073220Y-85506240D01*
X117448600Y-81093600D02*
X118048600Y-81093600D01*
X115048600Y-78693600D02*
X117448600Y-81093600D01*
X121048600Y-79893600D02*
X120148600Y-79893600D01*
X121123601Y-79818599D02*
X121048600Y-79893600D01*
X121123601Y-76481481D02*
X121123601Y-79818599D01*
X120495380Y-75853260D02*
X121123601Y-76481481D01*
X120495380Y-74978260D02*
X120495380Y-75853260D01*
X96316800Y-91960680D02*
X94409240Y-91960680D01*
X94409240Y-91960680D02*
X93581220Y-91132660D01*
X93581220Y-91132660D02*
X93576140Y-91132660D01*
X93575500Y-91133300D02*
X93576140Y-91132660D01*
X91658440Y-91133300D02*
X93575500Y-91133300D01*
X116641880Y-67828280D02*
X116641880Y-67335400D01*
X116644420Y-67830820D02*
X116641880Y-67828280D01*
X116644420Y-68830820D02*
X116644420Y-67830820D01*
D31*
X119392300Y-67339180D02*
X116641880Y-67335400D01*
X116641880Y-67335400D02*
X115061058Y-67339180D01*
X134178040Y-99133660D02*
X134221220Y-99176840D01*
X131927600Y-99133660D02*
X134178040Y-99133660D01*
D30*
X118193820Y-93348275D02*
X118193820Y-93913960D01*
X135121220Y-99176840D02*
X134221220Y-99176840D01*
X138420000Y-95878060D02*
X135121220Y-99176840D01*
X138420000Y-92500000D02*
X138420000Y-95878060D01*
X126073220Y-88819960D02*
X126073220Y-87944960D01*
X128559659Y-91306399D02*
X126073220Y-88819960D01*
X137226399Y-91306399D02*
X138420000Y-92500000D01*
X128559659Y-91306399D02*
X137226399Y-91306399D01*
X113548600Y-78693600D02*
X113548600Y-77793600D01*
X113981080Y-79126080D02*
X113548600Y-78693600D01*
X114616120Y-79126080D02*
X113981080Y-79126080D01*
X112423601Y-82778601D02*
X112613439Y-82778601D01*
X112308602Y-82893600D02*
X112423601Y-82778601D01*
X112613439Y-82778601D02*
X113675160Y-81716880D01*
X113675160Y-81716880D02*
X113675160Y-80899000D01*
X114616120Y-79958040D02*
X114616120Y-79126080D01*
X113675160Y-80899000D02*
X114616120Y-79958040D01*
X91658440Y-85818980D02*
X91622880Y-85783420D01*
X91658440Y-88633300D02*
X91658440Y-85818980D01*
X95539540Y-85783420D02*
X96316800Y-86560680D01*
X91622880Y-85783420D02*
X95539540Y-85783420D01*
X110548600Y-82393600D02*
X111448600Y-82393600D01*
X107503158Y-82393600D02*
X110548600Y-82393600D01*
X103336078Y-86560680D02*
X107503158Y-82393600D01*
X96316800Y-86560680D02*
X103336078Y-86560680D01*
X103336078Y-96842840D02*
X103336078Y-86560680D01*
X109641739Y-103148501D02*
X103336078Y-96842840D01*
X140238381Y-103148501D02*
X109641739Y-103148501D01*
X139621260Y-83649820D02*
X140721260Y-83649820D01*
X140238381Y-103148501D02*
X142407640Y-100979242D01*
X142407640Y-100979242D02*
X142407640Y-84653120D01*
X141404340Y-83649820D02*
X140721260Y-83649820D01*
X142407640Y-84653120D02*
X141404340Y-83649820D01*
X104172320Y-81393600D02*
X102199440Y-79420720D01*
X111448600Y-81393600D02*
X104172320Y-81393600D01*
X104626560Y-81893600D02*
X102199440Y-84320720D01*
X111448600Y-81893600D02*
X104626560Y-81893600D01*
X105912812Y-80393600D02*
X111448600Y-80393600D01*
X103496202Y-77976990D02*
X103496202Y-77273242D01*
X105912812Y-80393600D02*
X103496202Y-77976990D01*
X103496202Y-77273242D02*
X102930960Y-76708000D01*
X102930960Y-76708000D02*
X99684840Y-76708000D01*
X97205800Y-79187040D02*
X97205800Y-80365600D01*
X99684840Y-76708000D02*
X97205800Y-79187040D01*
X98806000Y-81305400D02*
X97205800Y-82905600D01*
X98806000Y-78582520D02*
X98806000Y-81305400D01*
X100218240Y-77170280D02*
X98806000Y-78582520D01*
X105776402Y-80893600D02*
X103046193Y-78163391D01*
X111448600Y-80893600D02*
X105776402Y-80893600D01*
X103046193Y-78163391D02*
X103046193Y-77732553D01*
X103046193Y-77732553D02*
X102483920Y-77170280D01*
X102483920Y-77170280D02*
X100218240Y-77170280D01*
X109049820Y-100271580D02*
X109819440Y-101041200D01*
X109049820Y-97745540D02*
X109049820Y-100271580D01*
X92556699Y-79297161D02*
X93488879Y-79297161D01*
X91706700Y-80147160D02*
X92556699Y-79297161D01*
X98219280Y-74566760D02*
X108320840Y-74566760D01*
X93488879Y-79297161D02*
X98219280Y-74566760D01*
X118548600Y-86493600D02*
X118548600Y-81838471D01*
X118548600Y-81838471D02*
X118773600Y-81613471D01*
X112823600Y-78018600D02*
X113048600Y-77793600D01*
X112823600Y-79888080D02*
X112823600Y-78018600D01*
X120146880Y-79395320D02*
X120148600Y-79393600D01*
X118267480Y-79395320D02*
X120146880Y-79395320D01*
X109472720Y-100694480D02*
X109819440Y-101041200D01*
X91706700Y-82999600D02*
X91622880Y-83083420D01*
X91706700Y-80147160D02*
X91706700Y-82999600D01*
X123543060Y-83616780D02*
X123471960Y-83545680D01*
X123543060Y-85476080D02*
X123543060Y-83616780D01*
D31*
X132930900Y-65163700D02*
X138473180Y-65163700D01*
X131953000Y-66141600D02*
X132930900Y-65163700D01*
X114919760Y-65265300D02*
X114828320Y-65173860D01*
X117340380Y-65265300D02*
X114919760Y-65265300D01*
D30*
X108320840Y-76048880D02*
X109096800Y-76824840D01*
X108320840Y-74566760D02*
X108320840Y-76048880D01*
X112673600Y-77793600D02*
X113048600Y-77793600D01*
X111065560Y-77793600D02*
X112673600Y-77793600D01*
X110096800Y-76824840D02*
X111065560Y-77793600D01*
X109096800Y-76824840D02*
X110096800Y-76824840D01*
X123543060Y-87914800D02*
X123573220Y-87944960D01*
X123543060Y-85476080D02*
X123543060Y-87914800D01*
X123573220Y-90472580D02*
X123558300Y-90487500D01*
X123573220Y-87944960D02*
X123573220Y-90472580D01*
X111448600Y-83393600D02*
X112768862Y-83393600D01*
X112768862Y-83393600D02*
X114548991Y-81613471D01*
X112768862Y-84933340D02*
X112768862Y-83393600D01*
X111053299Y-86648903D02*
X112768862Y-84933340D01*
X111053299Y-88866303D02*
X111053299Y-86648903D01*
X108074819Y-91844783D02*
X111053299Y-88866303D01*
X108074819Y-97670539D02*
X108074819Y-91844783D01*
X108149820Y-97745540D02*
X108074819Y-97670539D01*
X109049820Y-97745540D02*
X108149820Y-97745540D01*
X109097660Y-63798460D02*
X108197660Y-63798460D01*
X114352920Y-63798460D02*
X109097660Y-63798460D01*
X114828320Y-64273860D02*
X114352920Y-63798460D01*
X114828320Y-65173860D02*
X114828320Y-64273860D01*
X93739960Y-63798460D02*
X92585540Y-64952880D01*
X108197660Y-63798460D02*
X93739960Y-63798460D01*
X118548600Y-86493600D02*
X120809000Y-86493600D01*
X122260360Y-87944960D02*
X123573220Y-87944960D01*
X120809000Y-86493600D02*
X122260360Y-87944960D01*
X124363480Y-77386160D02*
X124363480Y-78416160D01*
X124363480Y-75660360D02*
X124363480Y-77386160D01*
X120642300Y-71939180D02*
X124363480Y-75660360D01*
X119392300Y-71939180D02*
X120642300Y-71939180D01*
X118142300Y-71939180D02*
X119392300Y-71939180D01*
X117995380Y-72086100D02*
X118142300Y-71939180D01*
X117995380Y-74978260D02*
X117995380Y-72086100D01*
X132709961Y-80246161D02*
X126954280Y-80246161D01*
X137245100Y-78452500D02*
X134503622Y-78452500D01*
X134503622Y-78452500D02*
X132709961Y-80246161D01*
D31*
X119392300Y-69639180D02*
X125692300Y-69639180D01*
D30*
X119142300Y-69639180D02*
X119392300Y-69639180D01*
X118142300Y-70639180D02*
X119142300Y-69639180D01*
X118142300Y-70889180D02*
X118142300Y-70639180D01*
X117700660Y-71330820D02*
X118142300Y-70889180D01*
X116644420Y-71330820D02*
X117700660Y-71330820D01*
X125692300Y-67489180D02*
X125692300Y-69639180D01*
X129192781Y-63988699D02*
X125692300Y-67489180D01*
X139583181Y-63988699D02*
X129192781Y-63988699D01*
X139648181Y-64053699D02*
X139583181Y-63988699D01*
X139648181Y-65537703D02*
X139648181Y-64053699D01*
X140163181Y-66052703D02*
X139648181Y-65537703D01*
X140163181Y-66853701D02*
X140163181Y-66052703D01*
X141013180Y-67703700D02*
X140163181Y-66853701D01*
X109949820Y-95045540D02*
X110991399Y-96087119D01*
X109049820Y-95045540D02*
X109949820Y-95045540D01*
X110991399Y-96087119D02*
X110991399Y-98178641D01*
X110991399Y-98178641D02*
X111824498Y-99011740D01*
X111824498Y-99011740D02*
X112245140Y-99011740D01*
X135488680Y-90530680D02*
X137236200Y-88783160D01*
X134228840Y-90530680D02*
X135488680Y-90530680D01*
X109428300Y-88506300D02*
X109428300Y-87376020D01*
X109428300Y-87376020D02*
X109326680Y-87274400D01*
X106010749Y-86771011D02*
X104233594Y-86771011D01*
X106540300Y-85341460D02*
X106540300Y-86241460D01*
X106540300Y-86241460D02*
X106010749Y-86771011D01*
X110078460Y-83893600D02*
X111448600Y-83893600D01*
X109380020Y-83195160D02*
X110078460Y-83893600D01*
X127909340Y-96426020D02*
X127911860Y-96423500D01*
X124627640Y-96426020D02*
X127909340Y-96426020D01*
X134221220Y-101876840D02*
X135430280Y-101876840D01*
X135430280Y-101876840D02*
X135912860Y-101394260D01*
X128530601Y-94283781D02*
X131150360Y-96903540D01*
X123654581Y-94283781D02*
X128530601Y-94283781D01*
X123558300Y-93187500D02*
X123558300Y-94187500D01*
X123558300Y-94187500D02*
X123654581Y-94283781D01*
X106418400Y-76846440D02*
X106396800Y-76824840D01*
X106418400Y-78806040D02*
X106418400Y-76846440D01*
X132527040Y-88412320D02*
X134696200Y-86243160D01*
X132527040Y-90017600D02*
X132527040Y-88412320D01*
D31*
X141863179Y-69393701D02*
X141013180Y-70243700D01*
X142313181Y-68943699D02*
X141863179Y-69393701D01*
X142313181Y-64539699D02*
X142313181Y-68943699D01*
X138144202Y-60370720D02*
X142313181Y-64539699D01*
X128501140Y-60370720D02*
X138144202Y-60370720D01*
D30*
X115048600Y-86493600D02*
X115048600Y-94400940D01*
X119979440Y-99331780D02*
X119979440Y-101041200D01*
X115048600Y-94400940D02*
X119979440Y-99331780D01*
X114598590Y-86950690D02*
X114598590Y-95073610D01*
X114548600Y-86493600D02*
X114548600Y-86900700D01*
X114548600Y-86900700D02*
X114598590Y-86950690D01*
X117439440Y-97914460D02*
X117439440Y-101041200D01*
X114598590Y-95073610D02*
X117439440Y-97914460D01*
X114048600Y-86493600D02*
X114048600Y-95496440D01*
X114899440Y-96347280D02*
X114899440Y-101041200D01*
X114048600Y-95496440D02*
X114899440Y-96347280D01*
X113548600Y-99852040D02*
X112359440Y-101041200D01*
X113548600Y-86493600D02*
X113548600Y-99852040D01*
X111448600Y-79393600D02*
X111448600Y-78548060D01*
X111448600Y-78548060D02*
X111478060Y-78518600D01*
X113591340Y-67808575D02*
X113591340Y-68374260D01*
X113591340Y-67611138D02*
X113591340Y-67808575D01*
X114650678Y-66551800D02*
X113591340Y-67611138D01*
X117126882Y-66551800D02*
X114650678Y-66551800D01*
X118065381Y-65613301D02*
X117126882Y-66551800D01*
X118065381Y-64917299D02*
X118065381Y-65613301D01*
X116039900Y-62891818D02*
X118065381Y-64917299D01*
X116039900Y-60373260D02*
X116039900Y-62891818D01*
X92556699Y-76757161D02*
X93356799Y-76757161D01*
X91706700Y-77607160D02*
X92556699Y-76757161D01*
X109590840Y-73541760D02*
X109590840Y-74566760D01*
X109515839Y-73466759D02*
X109590840Y-73541760D01*
X96647201Y-73466759D02*
X109515839Y-73466759D01*
X93630541Y-76114701D02*
X93819980Y-76304140D01*
X93630541Y-68537881D02*
X93630541Y-76114701D01*
X92585540Y-67492880D02*
X93630541Y-68537881D01*
X93356799Y-76757161D02*
X93819980Y-76304140D01*
X93819980Y-76304140D02*
X96647201Y-73466759D01*
X137207000Y-77190600D02*
X137245100Y-77152500D01*
X131701540Y-77190600D02*
X137207000Y-77190600D01*
X136320100Y-77802500D02*
X137245100Y-77802500D01*
X134168620Y-77802500D02*
X136320100Y-77802500D01*
X132718040Y-79253080D02*
X134168620Y-77802500D01*
X131718040Y-79253080D02*
X132718040Y-79253080D01*
D31*
X131917440Y-101823500D02*
X131927600Y-101833660D01*
X127911860Y-101823500D02*
X131917440Y-101823500D01*
D30*
X109688160Y-84893600D02*
X109240300Y-85341460D01*
X111448600Y-84893600D02*
X109688160Y-84893600D01*
X113048600Y-87586000D02*
X112128300Y-88506300D01*
X113048600Y-86493600D02*
X113048600Y-87586000D01*
X109118400Y-79706040D02*
X109118400Y-78806040D01*
X109255961Y-79843601D02*
X109118400Y-79706040D01*
X111305701Y-79843601D02*
X109255961Y-79843601D01*
X111355700Y-79893600D02*
X111305701Y-79843601D01*
X111448600Y-79893600D02*
X111355700Y-79893600D01*
X116048600Y-77793600D02*
X116048600Y-74789240D01*
X116048600Y-74789240D02*
X116273600Y-74564240D01*
X112133400Y-74569320D02*
X112130840Y-74566760D01*
X114805460Y-74569320D02*
X112133400Y-74569320D01*
X110215841Y-68131759D02*
X108492382Y-66408300D01*
X112130840Y-74566760D02*
X112130840Y-73541760D01*
X110215841Y-71626761D02*
X110215841Y-68131759D01*
X112130840Y-73541760D02*
X110215841Y-71626761D01*
X115548600Y-76893600D02*
X115548600Y-77793600D01*
X115548600Y-73609520D02*
X115548600Y-76893600D01*
X112130840Y-70191760D02*
X115548600Y-73609520D01*
X112130840Y-69166760D02*
X112130840Y-70191760D01*
X112130840Y-65176380D02*
X112128320Y-65173860D01*
X112130840Y-69166760D02*
X112130840Y-65176380D01*
X125888480Y-81116160D02*
X125313480Y-81116160D01*
X126171960Y-81399640D02*
X125888480Y-81116160D01*
X126171960Y-83545680D02*
X126171960Y-81399640D01*
X125313480Y-80086160D02*
X125313480Y-81116160D01*
X125238479Y-80011159D02*
X125313480Y-80086160D01*
X122828479Y-80011159D02*
X125238479Y-80011159D01*
X121946038Y-80893600D02*
X122828479Y-80011159D01*
X120148600Y-80893600D02*
X121946038Y-80893600D01*
X123413480Y-79446160D02*
X123413480Y-78416160D01*
X123488481Y-79521161D02*
X123413480Y-79446160D01*
X127749959Y-79521161D02*
X123488481Y-79521161D01*
X128018040Y-79253080D02*
X127749959Y-79521161D01*
X129018040Y-79253080D02*
X128018040Y-79253080D01*
X125313480Y-77386160D02*
X125313480Y-78416160D01*
X125509040Y-77190600D02*
X125313480Y-77386160D01*
X129001540Y-77190600D02*
X125509040Y-77190600D01*
X121048600Y-81393600D02*
X120148600Y-81393600D01*
X122561040Y-81393600D02*
X121048600Y-81393600D01*
X122838480Y-81116160D02*
X122561040Y-81393600D01*
X123413480Y-81116160D02*
X122838480Y-81116160D01*
X116548600Y-88574200D02*
X116255800Y-88867000D01*
X116548600Y-86493600D02*
X116548600Y-88574200D01*
X121889520Y-84598110D02*
X121889520Y-84876640D01*
X120148600Y-83893600D02*
X121185010Y-83893600D01*
X121185010Y-83893600D02*
X121889520Y-84598110D01*
X121123601Y-85612499D02*
X120967500Y-85768600D01*
X121123601Y-84468601D02*
X121123601Y-85612499D01*
X120148600Y-84393600D02*
X121048600Y-84393600D01*
X121048600Y-84393600D02*
X121123601Y-84468601D01*
X120148600Y-84893600D02*
X120148600Y-85426720D01*
X120148600Y-85426720D02*
X119806720Y-85768600D01*
X122084459Y-79854584D02*
X122084459Y-79288899D01*
X120148600Y-80393600D02*
X121545443Y-80393600D01*
X121545443Y-80393600D02*
X122084459Y-79854584D01*
X138601199Y-87418161D02*
X139776200Y-86243160D01*
X136672199Y-87418161D02*
X138601199Y-87418161D01*
X130706879Y-85017359D02*
X135497319Y-85017359D01*
X126984760Y-81295240D02*
X130706879Y-85017359D01*
X135497319Y-85017359D02*
X135976360Y-85496400D01*
X135976360Y-85496400D02*
X135976360Y-86722322D01*
X135976360Y-86722322D02*
X136672199Y-87418161D01*
X118548600Y-77793600D02*
X120163340Y-77793600D01*
X120163340Y-77793600D02*
X120200420Y-77830680D01*
M02*
